<?xml version="1.0" encoding="UTF-8"?>
<svg version="1.1" xmlns="http://www.w3.org/2000/svg" width="146" height="78">
<path d="M0 0 C4.93889381 3.75105859 7.09956836 8.01092477 9.1640625 13.78125 C10.10765625 13.51248047 10.10765625 13.51248047 11.0703125 13.23828125 C16.40606154 11.91237976 20.31713717 11.34863608 25.40625 13.65625 C29.30492155 16.15139979 31.69543155 19.37535714 33.1640625 23.78125 C33.20360484 26.11424825 33.20807982 28.44833189 33.1640625 30.78125 C33.73640625 30.62269531 34.30875 30.46414062 34.8984375 30.30078125 C41.08973778 28.88105205 46.73613276 29.22768591 52.3046875 32.390625 C56.84333876 35.78507846 60.19485065 40.121944 61.1640625 45.78125 C61.1640625 52.05875549 60.09655868 57.72518348 56.1640625 62.78125 C51.5136447 66.26906335 48.10224497 67.90187993 42.31924438 67.92169189 C41.32106186 67.92740204 40.32287933 67.93311218 39.29444885 67.93899536 C37.6533036 67.94067215 37.6533036 67.94067215 35.97900391 67.94238281 C34.24938164 67.94983017 34.24938164 67.94983017 32.4848175 67.95742798 C28.66174732 67.97206013 24.83871861 67.97885302 21.015625 67.984375 C19.03382562 67.98867239 17.05202623 67.9929703 15.07022703 67.9973495 C9.5482571 68.00915939 4.02629724 68.01669755 -1.49568403 68.0201447 C-8.63447122 68.02462584 -15.77306699 68.04217787 -22.91179597 68.0711453 C-28.43206276 68.092767 -33.95227569 68.10284922 -39.47258437 68.10418582 C-42.76869775 68.10523343 -46.06459011 68.11257821 -49.36066818 68.12900543 C-53.03795706 68.14602578 -56.71477776 68.1441953 -60.39208984 68.13769531 C-61.48213821 68.1469101 -62.57218658 68.15612488 -63.69526672 68.1656189 C-69.89563123 68.1312196 -73.77684011 67.74764747 -78.3828125 63.28125 C-82.35854328 58.32449474 -83.25835462 55.11750673 -82.8359375 48.78125 C-81.01536748 42.91496883 -78.70708394 40.23164539 -73.8359375 36.78125 C-70.95382448 35.82054566 -69.13743706 35.67543117 -66.1484375 35.71875 C-64.93607422 35.73228516 -64.93607422 35.73228516 -63.69921875 35.74609375 C-63.08433594 35.75769531 -62.46945313 35.76929688 -61.8359375 35.78125 C-61.53300781 35.17796875 -61.23007812 34.5746875 -60.91796875 33.953125 C-56.90949077 26.30618238 -53.1824655 22.9862171 -45.01953125 20.19921875 C-42.60829113 19.73767547 -41.14356442 20.01204103 -38.8359375 20.78125 C-38.990625 19.358125 -38.990625 19.358125 -39.1484375 17.90625 C-39.09711904 11.5684207 -36.09521946 6.00435129 -31.640625 1.62109375 C-22.20486746 -5.96176751 -10.35747603 -6.87560111 0 0 Z " fill="#FEFEFE" transform="translate(83.8359375,5.21875)"/>
</svg>
