<?xml version="1.0" encoding="UTF-8"?>
<svg version="1.1" xmlns="http://www.w3.org/2000/svg" width="114" height="68">
<path d="M0 0 C4.74258795 4.12017807 7.21315218 7.96938862 9 14 C10.28583984 13.94779297 10.28583984 13.94779297 11.59765625 13.89453125 C21.73608973 13.65450069 27.57945601 14.92459759 35 22 C35.44666016 23.04027344 35.44666016 23.04027344 35.90234375 24.1015625 C36.82512354 26.18132479 36.82512354 26.18132479 38.953125 26.65234375 C39.71109375 26.74644531 40.4690625 26.84054688 41.25 26.9375 C46.22791448 27.85933602 48.53845147 29.28516743 52 33 C54.03889875 36.98914974 54.38125351 40.51979482 53.6796875 44.96875 C52.43840046 48.67834344 49.93988859 51.47696129 47 54 C42.53205522 55.48931493 37.94546533 55.56940449 33.4375 54.25 C30.75747904 53.71530887 30.75747904 53.71530887 28.0625 55.9375 C22.73337763 59.32555131 16.05994837 58.79509961 10 58 C7.19921875 56.4609375 7.19921875 56.4609375 5 55 C2.63571868 55.21493467 1.24508877 55.85498022 -0.7890625 57.05859375 C-3.50607414 58.21548387 -5.37892475 58.06586911 -8.3125 57.875 C-12.13404667 57.77895584 -14.4102891 57.86345763 -17.5625 60.0625 C-21.72243568 62.40719102 -24.06833728 62.36568584 -28.6953125 61.68359375 C-33.36785488 60.29767016 -35.41780054 56.87329919 -38 53 C-38 52.01 -38 51.02 -38 50 C-38.86625 50.0825 -39.7325 50.165 -40.625 50.25 C-46.04714759 49.84835944 -48.85571819 47.29484521 -52.375 43.3125 C-54.47250211 39.03682263 -54.71043399 35.67846773 -54 31 C-52.25218118 26.8604291 -49.77942805 24.40509058 -46 22 C-42.1875 21.25 -42.1875 21.25 -39 21 C-39.0825 20.01 -39.165 19.02 -39.25 18 C-39.25 11.51858992 -35.40786711 5.53380617 -31 1 C-21.39233656 -5.6601133 -10.08500343 -6.0476235 0 0 Z " fill="#FEFEFE" transform="translate(55,5)"/>
</svg>
